<?xml version="1.0" encoding="UTF-8"?>
<svg xmlns="http://www.w3.org/2000/svg" xmlns:xlink="http://www.w3.org/1999/xlink" width="110px" height="110px" viewBox="0 0 110 110" version="1.1">
<g id="surface1">
<path style=" stroke:none;fill-rule:nonzero;fill:rgb(82.352942%,85.882354%,89.411765%);fill-opacity:1;" d="M 54.851562 5.074219 C 55.0625 5.074219 55.269531 5.074219 55.484375 5.074219 C 58.832031 5.085938 62.035156 5.277344 65.3125 6.015625 C 65.519531 6.058594 65.726562 6.105469 65.9375 6.152344 C 72.097656 7.523438 78.261719 9.980469 83.359375 13.75 C 83.5625 13.894531 83.769531 14.042969 83.976562 14.191406 C 88.132812 17.226562 91.910156 20.773438 94.960938 24.921875 C 95.113281 25.125 95.269531 25.328125 95.425781 25.535156 C 101.070312 33.085938 104.808594 42.828125 104.894531 52.3125 C 104.898438 52.503906 104.898438 52.699219 104.902344 52.894531 C 104.9375 57.109375 104.917969 61.183594 103.984375 65.3125 C 103.914062 65.628906 103.914062 65.628906 103.84375 65.949219 C 101.828125 74.902344 97.425781 83.074219 91.027344 89.648438 C 90.683594 90 90.34375 90.355469 90.007812 90.710938 C 88.484375 92.292969 86.835938 93.648438 85.078125 94.960938 C 84.875 95.117188 84.671875 95.269531 84.460938 95.429688 C 76.84375 101.109375 67.109375 104.804688 57.554688 104.894531 C 57.371094 104.898438 57.1875 104.898438 57 104.902344 C 52.824219 104.941406 48.789062 104.871094 44.6875 103.984375 C 44.367188 103.914062 44.367188 103.914062 44.039062 103.84375 C 34.863281 101.792969 26.6875 97.207031 19.980469 90.664062 C 19.863281 90.550781 19.742188 90.4375 19.621094 90.316406 C 11.347656 82.347656 5.433594 70.347656 5.117188 58.753906 C 5.113281 58.398438 5.109375 58.042969 5.105469 57.6875 C 5.101562 57.496094 5.101562 57.300781 5.097656 57.105469 C 5.0625 52.890625 5.082031 48.816406 6.015625 44.6875 C 6.0625 44.476562 6.109375 44.269531 6.15625 44.050781 C 7.792969 36.773438 11.011719 29.890625 15.683594 24.0625 C 15.847656 23.851562 16.015625 23.644531 16.183594 23.429688 C 18.789062 20.207031 21.78125 17.25 25.136719 14.824219 C 25.324219 14.6875 25.507812 14.550781 25.699219 14.410156 C 32.0625 9.832031 39.335938 6.867188 47.050781 5.585938 C 47.277344 5.546875 47.503906 5.507812 47.738281 5.46875 C 50.109375 5.105469 52.457031 5.070312 54.851562 5.074219 Z M 54.851562 5.074219 "/>
<path style=" stroke:none;fill-rule:nonzero;fill:rgb(10.980392%,17.647059%,24.313726%);fill-opacity:1;" d="M 67.675781 19.335938 C 67.8125 19.386719 67.953125 19.433594 68.09375 19.484375 C 76.71875 22.570312 83.921875 28.945312 88.300781 36.953125 C 88.410156 37.152344 88.410156 37.152344 88.523438 37.359375 C 91.402344 42.628906 93.464844 49.351562 92.8125 55.429688 C 92.527344 56.050781 92.527344 56.050781 92.167969 56.503906 C 91.4375 56.746094 90.875 56.75 90.101562 56.753906 C 89.960938 56.753906 89.816406 56.753906 89.667969 56.757812 C 89.195312 56.757812 88.722656 56.761719 88.246094 56.761719 C 87.917969 56.761719 87.589844 56.765625 87.257812 56.765625 C 86.570312 56.769531 85.878906 56.769531 85.1875 56.769531 C 84.304688 56.773438 83.417969 56.777344 82.535156 56.78125 C 81.855469 56.785156 81.175781 56.789062 80.492188 56.789062 C 80.167969 56.789062 79.84375 56.789062 79.515625 56.792969 C 79.058594 56.796875 78.605469 56.796875 78.148438 56.796875 C 77.886719 56.796875 77.628906 56.796875 77.359375 56.796875 C 76.640625 56.710938 76.34375 56.585938 75.839844 56.074219 C 75.652344 55.515625 75.585938 55.128906 75.546875 54.554688 C 75.078125 48.335938 72.667969 43.179688 67.917969 38.992188 C 66.285156 37.6875 64.386719 36.800781 62.519531 35.878906 C 62.507812 36.15625 62.507812 36.15625 62.496094 36.4375 C 62.351562 39.246094 61.996094 42.019531 61.648438 44.808594 C 61.554688 45.535156 61.464844 46.261719 61.375 46.992188 C 61.320312 47.441406 61.265625 47.890625 61.207031 48.339844 C 60.871094 50.457031 60.871094 50.457031 61.445312 52.449219 C 62.140625 53.917969 62.113281 55.4375 61.679688 56.988281 C 60.78125 59.300781 59.753906 60.359375 57.515625 61.410156 C 56.070312 62.03125 54.476562 62.136719 52.941406 61.726562 C 52.453125 61.523438 52.015625 61.289062 51.5625 61.015625 C 51.414062 60.925781 51.261719 60.839844 51.109375 60.746094 C 49.519531 59.691406 48.636719 58.101562 48.125 56.289062 C 47.84375 54.214844 48.269531 52.65625 49.414062 50.917969 C 49.769531 50.554688 50.125 50.195312 50.488281 49.84375 C 50.804688 48.878906 51.023438 47.902344 51.222656 46.90625 C 51.277344 46.632812 51.335938 46.355469 51.390625 46.074219 C 51.453125 45.777344 51.511719 45.480469 51.570312 45.183594 C 51.632812 44.878906 51.695312 44.574219 51.757812 44.265625 C 51.917969 43.464844 52.082031 42.664062 52.242188 41.863281 C 52.40625 41.042969 52.574219 40.222656 52.738281 39.402344 C 53.0625 37.800781 53.386719 36.195312 53.710938 34.589844 C 53.171875 34.652344 52.632812 34.714844 52.09375 34.777344 C 51.941406 34.792969 51.789062 34.8125 51.636719 34.828125 C 47.699219 35.300781 43.925781 37.292969 41.035156 39.960938 C 40.882812 40.09375 40.734375 40.226562 40.578125 40.367188 C 36.589844 44.085938 34.675781 49.464844 34.46875 54.804688 C 34.363281 55.515625 34.164062 55.929688 33.730469 56.503906 C 33 56.746094 32.4375 56.75 31.664062 56.753906 C 31.523438 56.753906 31.378906 56.753906 31.230469 56.757812 C 30.757812 56.757812 30.285156 56.761719 29.808594 56.761719 C 29.480469 56.761719 29.152344 56.765625 28.820312 56.765625 C 28.132812 56.769531 27.441406 56.769531 26.75 56.769531 C 25.867188 56.773438 24.980469 56.777344 24.097656 56.78125 C 23.417969 56.785156 22.738281 56.789062 22.054688 56.789062 C 21.730469 56.789062 21.40625 56.789062 21.078125 56.792969 C 20.621094 56.796875 20.167969 56.796875 19.710938 56.796875 C 19.449219 56.796875 19.191406 56.796875 18.921875 56.796875 C 18.203125 56.710938 17.90625 56.585938 17.402344 56.074219 C 15.769531 51.175781 18.414062 43.988281 20.410156 39.53125 C 20.46875 39.398438 20.53125 39.261719 20.59375 39.125 C 22.261719 35.453125 24.539062 32.164062 27.285156 29.21875 C 27.394531 29.097656 27.507812 28.980469 27.621094 28.855469 C 37.75 18.101562 53.769531 14.207031 67.675781 19.335938 Z M 67.675781 19.335938 "/>
<path style=" stroke:none;fill-rule:nonzero;fill:rgb(10.588235%,17.647059%,23.921569%);fill-opacity:1;" d="M 54.851562 5.074219 C 55.0625 5.074219 55.269531 5.074219 55.484375 5.074219 C 58.832031 5.085938 62.035156 5.277344 65.3125 6.015625 C 65.519531 6.058594 65.726562 6.105469 65.9375 6.152344 C 72.097656 7.523438 78.261719 9.980469 83.359375 13.75 C 83.5625 13.894531 83.769531 14.042969 83.976562 14.191406 C 88.132812 17.226562 91.910156 20.773438 94.960938 24.921875 C 95.113281 25.125 95.269531 25.328125 95.425781 25.535156 C 101.070312 33.085938 104.808594 42.828125 104.894531 52.3125 C 104.898438 52.503906 104.898438 52.699219 104.902344 52.894531 C 104.9375 57.109375 104.917969 61.183594 103.984375 65.3125 C 103.914062 65.628906 103.914062 65.628906 103.84375 65.949219 C 101.828125 74.902344 97.425781 83.074219 91.027344 89.648438 C 90.683594 90 90.34375 90.355469 90.007812 90.710938 C 88.484375 92.292969 86.835938 93.648438 85.078125 94.960938 C 84.875 95.117188 84.671875 95.269531 84.460938 95.429688 C 76.84375 101.109375 67.109375 104.804688 57.554688 104.894531 C 57.371094 104.898438 57.1875 104.898438 57 104.902344 C 52.824219 104.941406 48.789062 104.871094 44.6875 103.984375 C 44.367188 103.914062 44.367188 103.914062 44.039062 103.84375 C 34.863281 101.792969 26.6875 97.207031 19.980469 90.664062 C 19.863281 90.550781 19.742188 90.4375 19.621094 90.316406 C 11.347656 82.347656 5.433594 70.347656 5.117188 58.753906 C 5.113281 58.398438 5.109375 58.042969 5.105469 57.6875 C 5.101562 57.496094 5.101562 57.300781 5.097656 57.105469 C 5.0625 52.890625 5.082031 48.816406 6.015625 44.6875 C 6.0625 44.476562 6.109375 44.269531 6.15625 44.050781 C 7.792969 36.773438 11.011719 29.890625 15.683594 24.0625 C 15.847656 23.851562 16.015625 23.644531 16.183594 23.429688 C 18.789062 20.207031 21.78125 17.25 25.136719 14.824219 C 25.324219 14.6875 25.507812 14.550781 25.699219 14.410156 C 32.0625 9.832031 39.335938 6.867188 47.050781 5.585938 C 47.277344 5.546875 47.503906 5.507812 47.738281 5.46875 C 50.109375 5.105469 52.457031 5.070312 54.851562 5.074219 Z M 24.277344 20.195312 C 24.082031 20.367188 23.882812 20.542969 23.679688 20.71875 C 21.835938 22.359375 20.226562 24.0625 18.691406 25.996094 C 18.515625 26.214844 18.339844 26.429688 18.160156 26.65625 C 16.804688 28.351562 15.671875 30.125 14.609375 32.011719 C 14.488281 32.21875 14.488281 32.21875 14.367188 32.429688 C 8.488281 42.726562 7.011719 55.117188 9.9375 66.574219 C 11.722656 73.046875 14.621094 79.03125 18.90625 84.21875 C 19.007812 84.34375 19.109375 84.464844 19.214844 84.59375 C 22.835938 88.960938 27.089844 92.5625 32.011719 95.390625 C 32.144531 95.464844 32.273438 95.542969 32.410156 95.621094 C 42.902344 101.628906 55.515625 103.023438 67.144531 99.914062 C 79.273438 96.457031 89.414062 88.527344 95.605469 77.558594 C 101.277344 67.320312 103.246094 54.582031 100.039062 43.21875 C 97.96875 36.148438 94.703125 29.800781 89.804688 24.277344 C 89.632812 24.082031 89.457031 23.882812 89.28125 23.679688 C 87.640625 21.835938 85.941406 20.21875 84.003906 18.691406 C 83.804688 18.535156 83.605469 18.375 83.398438 18.214844 C 79.265625 15.03125 74.742188 12.664062 69.824219 10.957031 C 69.65625 10.898438 69.484375 10.835938 69.3125 10.773438 C 53.972656 5.398438 36.296875 9.535156 24.277344 20.195312 Z M 24.277344 20.195312 "/>
<path style=" stroke:none;fill-rule:nonzero;fill:rgb(10.588235%,17.647059%,24.313726%);fill-opacity:1;" d="M 32.902344 65.171875 C 33.152344 65.167969 33.152344 65.167969 33.410156 65.164062 C 33.589844 65.164062 33.769531 65.167969 33.953125 65.167969 C 34.140625 65.167969 34.328125 65.167969 34.523438 65.167969 C 34.917969 65.164062 35.316406 65.167969 35.714844 65.171875 C 36.316406 65.179688 36.914062 65.171875 37.515625 65.164062 C 40.160156 65.160156 42.570312 65.40625 44.589844 67.316406 C 46.003906 68.933594 46.519531 70.597656 46.488281 72.734375 C 46.300781 74.433594 45.566406 75.835938 44.472656 77.128906 C 44.773438 78 45.210938 78.714844 45.714844 79.480469 C 46.539062 80.875 46.578125 82.199219 46.40625 83.789062 C 45.890625 85.636719 45.09375 87.257812 43.410156 88.242188 C 41.144531 89.398438 41.144531 89.398438 39.953125 89.410156 C 39.777344 89.410156 39.605469 89.414062 39.425781 89.414062 C 39.238281 89.417969 39.054688 89.417969 38.859375 89.417969 C 38.667969 89.417969 38.476562 89.421875 38.277344 89.421875 C 37.871094 89.425781 37.460938 89.425781 37.054688 89.425781 C 36.433594 89.429688 35.808594 89.433594 35.1875 89.441406 C 34.792969 89.445312 34.394531 89.445312 34 89.445312 C 33.71875 89.449219 33.71875 89.449219 33.4375 89.453125 C 32.152344 89.449219 32.152344 89.449219 31.472656 89.089844 C 30.949219 88.5 30.910156 87.945312 30.90625 87.191406 C 30.902344 87.011719 30.902344 86.828125 30.898438 86.640625 C 30.898438 86.441406 30.898438 86.242188 30.894531 86.039062 C 30.894531 85.828125 30.890625 85.617188 30.890625 85.402344 C 30.886719 84.707031 30.882812 84.011719 30.878906 83.3125 C 30.878906 83.078125 30.875 82.839844 30.875 82.59375 C 30.871094 81.339844 30.867188 80.082031 30.863281 78.824219 C 30.859375 77.527344 30.847656 76.226562 30.839844 74.929688 C 30.832031 73.929688 30.828125 72.933594 30.828125 71.9375 C 30.824219 71.457031 30.824219 70.976562 30.816406 70.5 C 30.8125 69.828125 30.808594 69.160156 30.8125 68.492188 C 30.808594 68.292969 30.804688 68.09375 30.800781 67.890625 C 30.8125 66.933594 30.84375 66.515625 31.425781 65.726562 C 31.992188 65.324219 32.222656 65.175781 32.902344 65.171875 Z M 32.902344 65.171875 "/>
<path style=" stroke:none;fill-rule:nonzero;fill:rgb(87.843138%,39.607844%,46.27451%);fill-opacity:1;" d="M 73.476562 26.210938 C 76.753906 27.328125 79.800781 30.886719 81.855469 33.515625 C 81.992188 33.667969 82.125 33.824219 82.265625 33.984375 C 86.65625 39.058594 89.375 46.585938 89.375 53.28125 C 85.902344 53.28125 82.425781 53.28125 78.847656 53.28125 C 78.707031 52.148438 78.5625 51.011719 78.417969 49.84375 C 77.054688 43.808594 73.507812 38.828125 68.535156 35.234375 C 68.847656 34.140625 69.332031 33.257812 69.917969 32.292969 C 70.109375 31.972656 70.300781 31.652344 70.492188 31.332031 C 70.59375 31.164062 70.695312 30.996094 70.796875 30.824219 C 71.351562 29.894531 71.890625 28.960938 72.429688 28.023438 C 72.535156 27.84375 72.636719 27.664062 72.746094 27.476562 C 72.988281 27.054688 73.234375 26.632812 73.476562 26.210938 Z M 73.476562 26.210938 "/>
<path style=" stroke:none;fill-rule:nonzero;fill:rgb(92.156863%,67.843139%,39.215687%);fill-opacity:1;" d="M 36.523438 26.210938 C 36.621094 26.378906 36.714844 26.546875 36.816406 26.722656 C 37.179688 27.363281 37.542969 28 37.910156 28.640625 C 38.066406 28.914062 38.222656 29.1875 38.378906 29.460938 C 38.53125 29.726562 38.683594 29.996094 38.835938 30.261719 C 38.988281 30.527344 39.136719 30.792969 39.289062 31.058594 C 39.65625 31.703125 40.03125 32.34375 40.417969 32.976562 C 40.558594 33.207031 40.695312 33.4375 40.839844 33.671875 C 40.964844 33.875 41.089844 34.078125 41.21875 34.289062 C 41.464844 34.804688 41.464844 34.804688 41.25 35.449219 C 40.875 35.78125 40.875 35.78125 40.390625 36.132812 C 35.558594 39.816406 32.332031 45.101562 31.367188 51.132812 C 31.296875 51.84375 31.226562 52.550781 31.152344 53.28125 C 27.679688 53.28125 24.203125 53.28125 20.625 53.28125 C 20.878906 49.738281 20.878906 49.738281 21.203125 48.179688 C 21.238281 47.996094 21.277344 47.816406 21.316406 47.632812 C 22.007812 44.433594 23.148438 41.539062 24.707031 38.671875 C 24.777344 38.539062 24.851562 38.402344 24.921875 38.265625 C 25.84375 36.542969 26.871094 35 28.144531 33.515625 C 28.34375 33.273438 28.542969 33.03125 28.742188 32.789062 C 34.207031 26.210938 34.207031 26.210938 36.523438 26.210938 Z M 36.523438 26.210938 "/>
<path style=" stroke:none;fill-rule:nonzero;fill:rgb(10.588235%,17.647059%,24.313726%);fill-opacity:1;" d="M 53.28125 65.179688 C 54.121094 65.351562 54.488281 65.730469 55 66.386719 C 55.519531 67.21875 55.984375 68.078125 56.449219 68.9375 C 56.714844 69.421875 56.980469 69.90625 57.246094 70.386719 C 57.375 70.621094 57.503906 70.855469 57.636719 71.097656 C 58.203125 72.105469 58.796875 73.089844 59.40625 74.070312 C 59.941406 74.9375 59.941406 74.9375 59.941406 75.410156 C 60.082031 75.410156 60.226562 75.410156 60.371094 75.410156 C 60.429688 75.257812 60.484375 75.109375 60.542969 74.953125 C 60.820312 74.292969 61.140625 73.683594 61.488281 73.058594 C 61.625 72.816406 61.761719 72.570312 61.898438 72.316406 C 61.972656 72.1875 62.042969 72.0625 62.117188 71.929688 C 62.328125 71.550781 62.539062 71.171875 62.746094 70.789062 C 63.460938 69.507812 64.191406 68.234375 64.949219 66.976562 C 65.152344 66.636719 65.152344 66.636719 65.363281 66.289062 C 65.742188 65.742188 65.742188 65.742188 66.386719 65.3125 C 66.804688 65.289062 66.804688 65.289062 67.246094 65.339844 C 67.390625 65.351562 67.539062 65.367188 67.6875 65.382812 C 68.300781 65.597656 68.433594 65.8125 68.75 66.386719 C 68.847656 67.078125 68.839844 67.761719 68.832031 68.460938 C 68.835938 68.667969 68.835938 68.878906 68.835938 69.09375 C 68.839844 69.789062 68.835938 70.484375 68.835938 71.179688 C 68.835938 71.664062 68.835938 72.144531 68.835938 72.628906 C 68.839844 73.640625 68.835938 74.652344 68.835938 75.664062 C 68.832031 76.960938 68.832031 78.257812 68.835938 79.554688 C 68.839844 80.550781 68.839844 81.546875 68.835938 82.546875 C 68.835938 83.023438 68.835938 83.5 68.835938 83.980469 C 68.839844 84.648438 68.835938 85.316406 68.832031 85.984375 C 68.835938 86.183594 68.835938 86.382812 68.835938 86.585938 C 68.828125 87.617188 68.789062 88.328125 68.105469 89.160156 C 67.5 89.460938 67.054688 89.429688 66.386719 89.375 C 65.714844 88.992188 65.5625 88.832031 65.3125 88.085938 C 65.289062 87.632812 65.273438 87.183594 65.269531 86.730469 C 65.261719 86.3125 65.261719 86.3125 65.253906 85.882812 C 65.25 85.578125 65.25 85.273438 65.246094 84.96875 C 65.238281 84.65625 65.234375 84.34375 65.230469 84.03125 C 65.21875 83.210938 65.207031 82.390625 65.199219 81.566406 C 65.1875 80.730469 65.175781 79.890625 65.164062 79.054688 C 65.140625 77.410156 65.117188 75.765625 65.097656 74.121094 C 65.023438 74.25 64.953125 74.375 64.878906 74.507812 C 64.542969 75.09375 64.210938 75.683594 63.875 76.269531 C 63.703125 76.570312 63.703125 76.570312 63.53125 76.878906 C 63.195312 77.464844 62.859375 78.050781 62.519531 78.632812 C 62.421875 78.804688 62.324219 78.972656 62.226562 79.148438 C 62.136719 79.300781 62.042969 79.457031 61.953125 79.613281 C 61.835938 79.8125 61.835938 79.8125 61.714844 80.015625 C 61.265625 80.574219 60.753906 80.75 60.0625 80.875 C 59.257812 80.738281 58.976562 80.304688 58.4375 79.707031 C 58.042969 79.09375 58.042969 79.09375 57.683594 78.433594 C 57.550781 78.195312 57.417969 77.957031 57.285156 77.714844 C 57.085938 77.34375 57.085938 77.34375 56.878906 76.96875 C 56.609375 76.476562 56.339844 75.984375 56.070312 75.492188 C 55.953125 75.277344 55.835938 75.058594 55.714844 74.835938 C 55.472656 74.359375 55.472656 74.359375 55.214844 74.121094 C 55.214844 74.292969 55.210938 74.464844 55.210938 74.644531 C 55.199219 76.273438 55.183594 77.898438 55.164062 79.527344 C 55.15625 80.363281 55.144531 81.203125 55.140625 82.039062 C 55.136719 82.847656 55.125 83.65625 55.117188 84.460938 C 55.113281 84.769531 55.109375 85.078125 55.109375 85.386719 C 55.105469 85.816406 55.097656 86.25 55.09375 86.683594 C 55.089844 86.929688 55.089844 87.171875 55.085938 87.425781 C 54.992188 88.160156 54.792969 88.570312 54.355469 89.160156 C 53.75 89.460938 53.304688 89.429688 52.636719 89.375 C 51.964844 88.992188 51.8125 88.832031 51.5625 88.085938 C 51.542969 87.789062 51.53125 87.488281 51.53125 87.191406 C 51.527344 87.011719 51.527344 86.828125 51.523438 86.640625 C 51.523438 86.441406 51.523438 86.242188 51.519531 86.039062 C 51.519531 85.828125 51.515625 85.617188 51.515625 85.402344 C 51.511719 84.707031 51.507812 84.011719 51.503906 83.3125 C 51.503906 83.078125 51.5 82.839844 51.5 82.59375 C 51.496094 81.339844 51.492188 80.082031 51.488281 78.824219 C 51.484375 77.527344 51.472656 76.226562 51.464844 74.929688 C 51.457031 73.929688 51.453125 72.933594 51.453125 71.9375 C 51.449219 71.457031 51.449219 70.976562 51.441406 70.5 C 51.4375 69.828125 51.433594 69.160156 51.4375 68.492188 C 51.433594 68.292969 51.429688 68.09375 51.425781 67.890625 C 51.4375 66.925781 51.464844 66.515625 52.066406 65.726562 C 52.636719 65.3125 52.636719 65.3125 53.28125 65.179688 Z M 53.28125 65.179688 "/>
<path style=" stroke:none;fill-rule:nonzero;fill:rgb(46.666667%,69.01961%,29.411766%);fill-opacity:1;" d="M 70.253906 24.0625 C 70.4375 24.429688 70.4375 24.429688 70.46875 24.921875 C 70.199219 25.535156 70.199219 25.535156 69.78125 26.238281 C 69.710938 26.367188 69.636719 26.492188 69.558594 26.621094 C 69.324219 27.027344 69.085938 27.433594 68.84375 27.835938 C 68.609375 28.234375 68.378906 28.632812 68.144531 29.027344 C 67.992188 29.289062 67.839844 29.550781 67.6875 29.808594 C 67.011719 30.957031 66.371094 32.125 65.742188 33.300781 C 64.796875 33.132812 64.035156 32.835938 63.164062 32.441406 C 63.179688 32.238281 63.179688 32.238281 63.199219 32.035156 C 63.246094 31.417969 63.285156 30.800781 63.324219 30.1875 C 63.34375 29.972656 63.359375 29.761719 63.378906 29.546875 C 63.460938 28.160156 63.347656 27.140625 62.519531 25.996094 C 61.570312 25.003906 60.722656 24.671875 59.363281 24.625 C 58.09375 24.640625 57.207031 24.882812 56.289062 25.78125 C 55.453125 26.824219 55.195312 27.804688 54.945312 29.085938 C 54.910156 29.261719 54.871094 29.441406 54.832031 29.625 C 54.742188 30.0625 54.65625 30.5 54.570312 30.9375 C 54.445312 30.953125 54.320312 30.964844 54.191406 30.980469 C 51.480469 31.289062 48.976562 31.742188 46.40625 32.65625 C 46.011719 32.785156 45.617188 32.917969 45.226562 33.046875 C 44.976562 33.128906 44.726562 33.214844 44.472656 33.300781 C 43.363281 31.546875 42.296875 29.765625 41.246094 27.976562 C 41.097656 27.722656 40.945312 27.46875 40.792969 27.214844 C 40.578125 26.855469 40.367188 26.492188 40.15625 26.128906 C 39.96875 25.8125 39.96875 25.8125 39.777344 25.488281 C 39.53125 24.921875 39.53125 24.921875 39.554688 24.441406 C 39.921875 23.71875 40.785156 23.515625 41.503906 23.230469 C 41.777344 23.121094 41.777344 23.121094 42.054688 23.007812 C 50.53125 19.660156 62.1875 19.0625 70.253906 24.0625 Z M 70.253906 24.0625 "/>
<path style=" stroke:none;fill-rule:nonzero;fill:rgb(10.196079%,17.254902%,23.921569%);fill-opacity:1;" d="M 77.34375 65.179688 C 78.238281 65.363281 78.507812 65.664062 79.0625 66.386719 C 79.21875 67.085938 79.203125 67.769531 79.195312 68.484375 C 79.195312 68.695312 79.195312 68.902344 79.199219 69.121094 C 79.199219 69.8125 79.195312 70.507812 79.191406 71.199219 C 79.191406 71.683594 79.191406 72.164062 79.191406 72.648438 C 79.191406 73.660156 79.1875 74.667969 79.179688 75.679688 C 79.171875 76.976562 79.167969 78.269531 79.171875 79.566406 C 79.171875 80.5625 79.167969 81.558594 79.164062 82.554688 C 79.164062 83.03125 79.164062 83.507812 79.164062 83.988281 C 79.164062 84.652344 79.160156 85.320312 79.152344 85.988281 C 79.152344 86.1875 79.152344 86.382812 79.15625 86.585938 C 79.140625 87.617188 79.097656 88.328125 78.417969 89.160156 C 77.8125 89.460938 77.367188 89.429688 76.699219 89.375 C 76.027344 88.992188 75.875 88.832031 75.625 88.085938 C 75.605469 87.789062 75.59375 87.488281 75.59375 87.191406 C 75.589844 87.011719 75.589844 86.828125 75.585938 86.640625 C 75.585938 86.441406 75.585938 86.242188 75.582031 86.039062 C 75.582031 85.828125 75.578125 85.617188 75.578125 85.402344 C 75.574219 84.707031 75.570312 84.011719 75.566406 83.3125 C 75.566406 83.078125 75.5625 82.839844 75.5625 82.59375 C 75.558594 81.339844 75.554688 80.082031 75.550781 78.824219 C 75.546875 77.527344 75.535156 76.226562 75.527344 74.929688 C 75.519531 73.929688 75.515625 72.933594 75.515625 71.9375 C 75.511719 71.457031 75.511719 70.976562 75.503906 70.5 C 75.5 69.828125 75.496094 69.160156 75.5 68.492188 C 75.496094 68.292969 75.492188 68.09375 75.488281 67.890625 C 75.5 66.925781 75.527344 66.515625 76.128906 65.726562 C 76.699219 65.3125 76.699219 65.3125 77.34375 65.179688 Z M 77.34375 65.179688 "/>
<path style=" stroke:none;fill-rule:nonzero;fill:rgb(81.960785%,85.490197%,89.019608%);fill-opacity:1;" d="M 34.375 79.0625 C 35.816406 79.035156 35.816406 79.035156 37.289062 79.007812 C 37.589844 79 37.890625 78.992188 38.199219 78.984375 C 39.691406 78.972656 40.699219 78.988281 41.894531 79.921875 C 42.851562 80.980469 43.046875 81.628906 43.027344 83.027344 C 42.910156 84.09375 42.324219 84.667969 41.558594 85.359375 C 40.699219 85.957031 40.035156 85.964844 39.011719 85.957031 C 38.648438 85.957031 38.648438 85.957031 38.277344 85.957031 C 37.8125 85.953125 37.8125 85.953125 37.34375 85.949219 C 36.363281 85.945312 35.382812 85.941406 34.375 85.9375 C 34.375 83.667969 34.375 81.398438 34.375 79.0625 Z M 34.375 79.0625 "/>
<path style=" stroke:none;fill-rule:nonzero;fill:rgb(81.960785%,85.490197%,89.019608%);fill-opacity:1;" d="M 34.375 68.75 C 35.816406 68.722656 35.816406 68.722656 37.289062 68.695312 C 37.589844 68.6875 37.890625 68.679688 38.199219 68.671875 C 39.691406 68.660156 40.699219 68.675781 41.894531 69.609375 C 42.851562 70.667969 43.046875 71.316406 43.027344 72.714844 C 42.910156 73.78125 42.324219 74.355469 41.558594 75.046875 C 40.699219 75.644531 40.035156 75.652344 39.011719 75.644531 C 38.648438 75.644531 38.648438 75.644531 38.277344 75.644531 C 37.8125 75.640625 37.8125 75.640625 37.34375 75.636719 C 36.363281 75.632812 35.382812 75.628906 34.375 75.625 C 34.375 73.355469 34.375 71.085938 34.375 68.75 Z M 34.375 68.75 "/>
<path style=" stroke:none;fill-rule:nonzero;fill:rgb(19.215687%,30.980393%,40.392157%);fill-opacity:1;" d="M 58.867188 27.929688 C 59.429688 28.011719 59.429688 28.011719 59.941406 28.144531 C 60.023438 30.3125 59.765625 32.394531 59.472656 34.535156 C 59.398438 35.085938 59.324219 35.636719 59.253906 36.191406 C 59.203125 36.570312 59.152344 36.953125 59.101562 37.335938 C 58.914062 38.734375 58.738281 40.132812 58.5625 41.53125 C 58.539062 41.726562 58.515625 41.925781 58.492188 42.128906 C 58.394531 42.898438 58.300781 43.667969 58.207031 44.4375 C 58.140625 44.964844 58.078125 45.496094 58.011719 46.027344 C 57.992188 46.183594 57.972656 46.339844 57.953125 46.5 C 57.867188 47.207031 57.75 47.863281 57.578125 48.554688 C 56.585938 48.414062 55.59375 48.269531 54.570312 48.125 C 55.3125 44.058594 56.089844 40 56.894531 35.945312 C 57.019531 35.308594 57.148438 34.675781 57.269531 34.039062 C 57.421875 33.257812 57.578125 32.476562 57.734375 31.695312 C 57.792969 31.402344 57.851562 31.109375 57.90625 30.8125 C 57.988281 30.40625 58.066406 30.003906 58.148438 29.597656 C 58.195312 29.367188 58.238281 29.140625 58.285156 28.902344 C 58.4375 28.359375 58.4375 28.359375 58.867188 27.929688 Z M 58.867188 27.929688 "/>
<path style=" stroke:none;fill-rule:nonzero;fill:rgb(31.764707%,40.000001%,50.196081%);fill-opacity:1;" d="M 55.859375 51.5625 C 56.894531 51.933594 57.625 52.578125 58.222656 53.496094 C 58.617188 54.480469 58.550781 55.546875 58.195312 56.53125 C 57.59375 57.453125 56.921875 58.082031 55.859375 58.4375 C 54.855469 58.554688 54.125 58.539062 53.214844 58.074219 C 52.011719 57.042969 51.621094 56.355469 51.496094 54.8125 C 51.507812 53.875 51.816406 53.359375 52.421875 52.636719 C 53.570312 51.625 54.347656 51.382812 55.859375 51.5625 Z M 55.859375 51.5625 "/>
</g>
</svg>
