<?xml version="1.0" encoding="UTF-8"?>
<svg xmlns="http://www.w3.org/2000/svg" xmlns:xlink="http://www.w3.org/1999/xlink" width="110px" height="110px" viewBox="0 0 110 110" version="1.1">
<g id="surface1">
<path style=" stroke:none;fill-rule:nonzero;fill:rgb(0.392157%,0.784314%,0.784314%);fill-opacity:1;" d="M 33.488281 -0.0859375 C 33.757812 -0.0898438 34.027344 -0.0898438 34.304688 -0.0898438 C 35.035156 -0.09375 35.765625 -0.09375 36.496094 -0.09375 C 37.109375 -0.09375 37.722656 -0.09375 38.332031 -0.09375 C 39.78125 -0.0976562 41.230469 -0.0976562 42.675781 -0.0976562 C 44.164062 -0.09375 45.648438 -0.0976562 47.136719 -0.101562 C 48.417969 -0.105469 49.699219 -0.109375 50.984375 -0.105469 C 51.746094 -0.105469 52.507812 -0.105469 53.273438 -0.109375 C 54.125 -0.113281 54.976562 -0.113281 55.828125 -0.109375 C 56.078125 -0.109375 56.328125 -0.113281 56.582031 -0.113281 C 59.464844 -0.0898438 61.742188 0.84375 63.847656 2.800781 C 66.347656 5.410156 66.882812 8.269531 66.875 11.75 C 66.875 12.066406 66.878906 12.382812 66.878906 12.703125 C 66.882812 13.5625 66.882812 14.425781 66.882812 15.285156 C 66.882812 16.007812 66.882812 16.730469 66.882812 17.449219 C 66.886719 19.15625 66.886719 20.859375 66.882812 22.566406 C 66.882812 24.316406 66.886719 26.066406 66.890625 27.820312 C 66.894531 29.328125 66.894531 30.839844 66.894531 32.347656 C 66.894531 33.246094 66.894531 34.144531 66.898438 35.042969 C 66.902344 35.890625 66.898438 36.738281 66.898438 37.585938 C 66.898438 37.894531 66.898438 38.203125 66.898438 38.507812 C 66.933594 44.96875 64.640625 50.679688 60.128906 55.308594 C 59.199219 56.234375 59.199219 56.234375 58.640625 56.496094 C 58.0625 56.804688 57.75 57.039062 57.363281 57.578125 C 57.113281 58.894531 57.132812 60.191406 57.148438 61.527344 C 57.148438 61.894531 57.144531 62.257812 57.140625 62.625 C 57.132812 63.523438 57.136719 64.417969 57.148438 65.3125 C 57.285156 65.335938 57.425781 65.363281 57.570312 65.390625 C 61.425781 66.089844 65.277344 66.835938 69.121094 67.613281 C 69.882812 67.769531 70.644531 67.921875 71.410156 68.074219 C 72.011719 68.191406 72.613281 68.3125 73.214844 68.4375 C 73.628906 68.519531 74.042969 68.601562 74.460938 68.683594 C 79.738281 69.761719 84.015625 72.128906 87.039062 76.6875 C 88.691406 79.453125 89.414062 82.449219 89.394531 85.648438 C 89.394531 85.972656 89.394531 85.972656 89.394531 86.304688 C 89.394531 86.996094 89.390625 87.691406 89.386719 88.382812 C 89.386719 88.851562 89.386719 89.320312 89.386719 89.792969 C 89.382812 90.941406 89.378906 92.09375 89.375 93.242188 C 88.878906 93.242188 88.382812 93.242188 87.871094 93.242188 C 87.871094 94.234375 87.871094 95.226562 87.871094 96.25 C 88.367188 96.25 88.863281 96.25 89.375 96.25 C 89.375 100.789062 89.375 105.324219 89.375 110 C 59.882812 110 30.386719 110 0 110 C 0 105.460938 0 100.925781 0 96.25 C 0.496094 96.25 0.992188 96.25 1.503906 96.25 C 1.503906 95.257812 1.503906 94.265625 1.503906 93.242188 C 1.007812 93.242188 0.511719 93.242188 0 93.242188 C -0.0234375 91.867188 -0.0351562 90.492188 -0.046875 89.117188 C -0.0507812 88.652344 -0.0585938 88.183594 -0.0664062 87.71875 C -0.117188 84.265625 -0.015625 81.039062 1.652344 77.921875 C 1.726562 77.78125 1.796875 77.636719 1.875 77.492188 C 3.992188 73.5625 7.609375 70.78125 11.816406 69.394531 C 12.96875 69.101562 14.128906 68.863281 15.292969 68.628906 C 15.640625 68.558594 15.988281 68.488281 16.335938 68.414062 C 17.324219 68.210938 18.308594 68.011719 19.296875 67.8125 C 20.035156 67.664062 20.773438 67.515625 21.511719 67.367188 C 23.128906 67.039062 24.75 66.710938 26.371094 66.386719 C 26.636719 66.332031 26.90625 66.28125 27.179688 66.222656 C 27.9375 66.070312 28.699219 65.921875 29.457031 65.769531 C 29.6875 65.722656 29.917969 65.675781 30.15625 65.628906 C 30.472656 65.566406 30.472656 65.566406 30.792969 65.503906 C 30.976562 65.464844 31.160156 65.429688 31.351562 65.390625 C 31.796875 65.3125 31.796875 65.3125 32.226562 65.3125 C 32.253906 64.246094 32.265625 63.179688 32.265625 62.113281 C 32.265625 61.753906 32.273438 61.390625 32.28125 61.027344 C 32.386719 58.84375 32.386719 58.84375 31.507812 56.933594 C 30.910156 56.445312 30.300781 56.050781 29.648438 55.644531 C 25.570312 52.09375 23.230469 46.984375 22.558594 41.679688 C 22.539062 41.207031 22.527344 40.734375 22.527344 40.261719 C 22.527344 39.984375 22.523438 39.707031 22.523438 39.425781 C 22.523438 39.121094 22.519531 38.820312 22.519531 38.515625 C 22.519531 38.195312 22.519531 37.871094 22.515625 37.550781 C 22.511719 36.5 22.507812 35.445312 22.507812 34.394531 C 22.507812 34.03125 22.503906 33.664062 22.503906 33.300781 C 22.5 31.59375 22.496094 29.882812 22.496094 28.171875 C 22.492188 26.207031 22.488281 24.238281 22.480469 22.269531 C 22.472656 20.746094 22.46875 19.222656 22.46875 17.695312 C 22.46875 16.789062 22.464844 15.878906 22.460938 14.96875 C 22.457031 14.113281 22.457031 13.257812 22.457031 12.402344 C 22.457031 12.089844 22.457031 11.777344 22.453125 11.464844 C 22.421875 8.132812 23.195312 5.210938 25.511719 2.738281 C 27.847656 0.539062 30.351562 -0.0976562 33.488281 -0.0859375 Z M 33.488281 -0.0859375 "/>
<path style=" stroke:none;fill-rule:nonzero;fill:rgb(43.921569%,88.627452%,74.117649%);fill-opacity:1;" d="M 56.074219 68.535156 C 57.9375 68.777344 59.769531 69.136719 61.605469 69.515625 C 61.839844 69.5625 62.074219 69.609375 62.3125 69.660156 C 62.53125 69.707031 62.75 69.75 62.972656 69.796875 C 63.167969 69.839844 63.367188 69.878906 63.570312 69.921875 C 64.023438 70.039062 64.023438 70.039062 64.238281 70.253906 C 64.257812 70.667969 64.261719 71.085938 64.261719 71.5 C 64.261719 71.769531 64.261719 72.035156 64.261719 72.308594 C 64.261719 72.601562 64.261719 72.894531 64.257812 73.1875 C 64.257812 73.488281 64.257812 73.785156 64.257812 74.082031 C 64.257812 74.871094 64.253906 75.65625 64.253906 76.445312 C 64.25 77.246094 64.25 78.046875 64.25 78.851562 C 64.246094 80.425781 64.242188 82 64.238281 83.574219 C 64.074219 83.632812 63.914062 83.691406 63.746094 83.75 C 63.425781 83.863281 63.425781 83.863281 63.101562 83.980469 C 62.890625 84.058594 62.675781 84.132812 62.460938 84.210938 C 60.035156 85.128906 58.519531 86.746094 57.375 89.027344 C 56.535156 91.21875 56.597656 93.835938 57.351562 96.046875 C 58.40625 98.390625 60.316406 100.128906 62.671875 101.113281 C 63.640625 101.460938 64.542969 101.523438 65.566406 101.515625 C 65.746094 101.511719 65.921875 101.511719 66.105469 101.511719 C 68.378906 101.445312 70.5625 100.675781 72.1875 99.042969 C 72.761719 98.363281 73.238281 97.660156 73.691406 96.894531 C 73.785156 96.738281 73.878906 96.582031 73.976562 96.421875 C 74.578125 95.207031 74.632812 94.023438 74.644531 92.691406 C 74.648438 92.523438 74.648438 92.351562 74.652344 92.175781 C 74.617188 89.792969 73.632812 87.648438 71.980469 85.929688 C 70.582031 84.75 69.222656 84.328125 67.460938 83.574219 C 67.460938 79.390625 67.460938 75.207031 67.460938 70.898438 C 69.851562 71.199219 72.195312 71.6875 74.550781 72.1875 C 74.808594 72.242188 74.808594 72.242188 75.070312 72.296875 C 79.0625 73.171875 82.035156 75.183594 84.238281 78.605469 C 86.191406 81.808594 86.242188 85.046875 86.191406 88.691406 C 86.1875 89.113281 86.1875 89.535156 86.183594 89.957031 C 86.175781 90.980469 86.164062 92.003906 86.152344 93.027344 C 86.394531 93.023438 86.640625 93.019531 86.890625 93.015625 C 87.65625 93.027344 87.65625 93.027344 87.871094 93.242188 C 87.886719 93.746094 87.890625 94.253906 87.882812 94.757812 C 87.882812 95.035156 87.878906 95.3125 87.878906 95.597656 C 87.875 95.921875 87.875 95.921875 87.871094 96.25 C 88.367188 96.25 88.863281 96.25 89.375 96.25 C 89.375 100.789062 89.375 105.324219 89.375 110 C 59.882812 110 30.386719 110 0 110 C 0 105.460938 0 100.925781 0 96.25 C 0.496094 96.25 0.992188 96.25 1.503906 96.25 C 1.5 96.035156 1.5 95.820312 1.496094 95.597656 C 1.496094 95.324219 1.492188 95.046875 1.492188 94.757812 C 1.488281 94.484375 1.484375 94.207031 1.484375 93.921875 C 1.503906 93.242188 1.503906 93.242188 1.71875 93.027344 C 2.21875 93.019531 2.722656 93.019531 3.222656 93.027344 C 3.21875 92.761719 3.214844 92.496094 3.210938 92.21875 C 3.199219 91.222656 3.191406 90.222656 3.1875 89.222656 C 3.183594 88.792969 3.179688 88.359375 3.175781 87.929688 C 3.117188 83.367188 3.800781 79.476562 7.089844 76.054688 C 9.960938 73.332031 12.988281 72.519531 16.757812 71.757812 C 17.164062 71.671875 17.574219 71.585938 17.980469 71.5 C 18.363281 71.421875 18.75 71.339844 19.132812 71.261719 C 19.3125 71.222656 19.488281 71.1875 19.671875 71.148438 C 19.839844 71.117188 20.003906 71.082031 20.175781 71.046875 C 20.320312 71.019531 20.464844 70.992188 20.613281 70.960938 C 21.054688 70.898438 21.054688 70.898438 22.128906 70.898438 C 22.128906 74.019531 22.128906 77.136719 22.128906 80.351562 C 21.136719 80.636719 20.144531 80.917969 19.121094 81.210938 C 15.519531 83.046875 13.421875 85.390625 12.019531 89.171875 C 11.679688 90.230469 11.574219 91.191406 11.558594 92.300781 C 11.554688 92.441406 11.554688 92.578125 11.550781 92.722656 C 11.542969 93.175781 11.539062 93.632812 11.535156 94.085938 C 11.527344 94.402344 11.523438 94.71875 11.519531 95.035156 C 11.507812 95.863281 11.496094 96.695312 11.488281 97.527344 C 11.472656 98.523438 11.460938 99.519531 11.445312 100.519531 C 11.425781 102.03125 11.40625 103.546875 11.386719 105.058594 C 13.796875 105.058594 16.207031 105.058594 18.691406 105.058594 C 18.691406 103.996094 18.691406 102.929688 18.691406 101.835938 C 17.34375 101.835938 15.996094 101.835938 14.609375 101.835938 C 14.59375 100.378906 14.582031 98.925781 14.574219 97.46875 C 14.570312 96.972656 14.566406 96.480469 14.5625 95.984375 C 14.554688 95.269531 14.550781 94.554688 14.546875 93.84375 C 14.542969 93.515625 14.542969 93.515625 14.535156 93.179688 C 14.535156 90.417969 15.328125 88.140625 17.210938 86.089844 C 19.539062 83.894531 21.875 83.445312 24.960938 83.5 C 27.117188 83.601562 28.988281 84.648438 30.507812 86.152344 C 32.3125 88.28125 33.007812 90.332031 32.953125 93.101562 C 32.953125 93.347656 32.953125 93.59375 32.953125 93.84375 C 32.945312 94.621094 32.9375 95.394531 32.925781 96.167969 C 32.921875 96.699219 32.917969 97.226562 32.914062 97.753906 C 32.902344 99.042969 32.890625 100.332031 32.871094 101.621094 C 31.59375 101.621094 30.320312 101.621094 29.003906 101.621094 C 29.003906 102.683594 29.003906 103.75 29.003906 104.84375 C 31.34375 104.84375 33.683594 104.84375 36.09375 104.84375 C 36.085938 102.28125 36.085938 102.28125 36.070312 99.722656 C 36.0625 98.675781 36.054688 97.628906 36.050781 96.578125 C 36.050781 95.734375 36.042969 94.890625 36.035156 94.042969 C 36.03125 93.722656 36.03125 93.402344 36.03125 93.082031 C 36.039062 89.914062 35.304688 87.382812 33.300781 84.863281 C 33.136719 84.636719 32.972656 84.410156 32.804688 84.179688 C 30.699219 81.976562 28.246094 81.179688 25.351562 80.351562 C 25.351562 76.949219 25.351562 73.546875 25.351562 70.039062 C 26.382812 69.828125 27.417969 69.613281 28.480469 69.394531 C 28.804688 69.328125 29.125 69.261719 29.457031 69.191406 C 29.714844 69.136719 29.972656 69.085938 30.238281 69.03125 C 30.503906 68.976562 30.765625 68.925781 31.035156 68.867188 C 31.8125 68.746094 32.515625 68.6875 33.300781 68.75 C 33.75 69.25 34.035156 69.652344 34.363281 70.226562 C 34.460938 70.386719 34.558594 70.546875 34.65625 70.714844 C 34.875 71.074219 35.09375 71.4375 35.308594 71.800781 C 35.828125 72.679688 36.367188 73.546875 36.902344 74.417969 C 37.347656 75.136719 37.789062 75.855469 38.230469 76.574219 C 39.148438 78.070312 40.09375 79.554688 41.042969 81.035156 C 41.644531 81.972656 42.234375 82.914062 42.808594 83.867188 C 42.914062 84.050781 43.023438 84.230469 43.136719 84.417969 C 43.34375 84.761719 43.546875 85.105469 43.746094 85.449219 C 43.976562 85.832031 44.222656 86.207031 44.472656 86.582031 C 44.613281 86.582031 44.757812 86.582031 44.902344 86.582031 C 45.160156 86.25 45.160156 86.25 45.402344 85.808594 C 45.5 85.640625 45.601562 85.46875 45.703125 85.292969 C 45.8125 85.109375 45.917969 84.921875 46.03125 84.730469 C 46.972656 83.125 47.941406 81.542969 48.945312 79.976562 C 51.367188 76.191406 53.742188 72.375 56.074219 68.535156 Z M 56.074219 68.535156 "/>
<path style=" stroke:none;fill-rule:nonzero;fill:rgb(99.215686%,89.411765%,75.686276%);fill-opacity:1;" d="M 32.429688 3.191406 C 32.648438 3.1875 32.871094 3.1875 33.097656 3.183594 C 33.457031 3.183594 33.457031 3.183594 33.824219 3.179688 C 34.078125 3.179688 34.332031 3.175781 34.59375 3.175781 C 35.4375 3.171875 36.277344 3.167969 37.121094 3.164062 C 37.410156 3.164062 37.703125 3.160156 37.992188 3.160156 C 39.203125 3.15625 40.414062 3.152344 41.621094 3.148438 C 43.351562 3.144531 45.082031 3.140625 46.8125 3.125 C 48.03125 3.117188 49.25 3.113281 50.46875 3.113281 C 51.195312 3.113281 51.917969 3.109375 52.644531 3.101562 C 53.460938 3.09375 54.273438 3.097656 55.085938 3.097656 C 55.320312 3.09375 55.558594 3.089844 55.800781 3.085938 C 58.015625 3.105469 60.085938 3.792969 61.714844 5.335938 C 62.996094 6.917969 63.621094 8.648438 63.617188 10.65625 C 63.617188 10.800781 63.617188 10.941406 63.617188 11.089844 C 63.617188 11.550781 63.617188 12.011719 63.613281 12.472656 C 63.613281 12.753906 63.613281 13.035156 63.613281 13.324219 C 63.613281 14.378906 63.609375 15.433594 63.605469 16.488281 C 63.601562 18.847656 63.597656 21.203125 63.59375 23.632812 C 54.875 23.632812 46.152344 23.632812 37.167969 23.632812 C 37.167969 24.695312 37.167969 25.761719 37.167969 26.855469 C 45.886719 26.855469 54.609375 26.855469 63.59375 26.855469 C 63.605469 29.011719 63.621094 31.171875 63.632812 33.394531 C 63.644531 34.40625 63.644531 34.40625 63.652344 35.433594 C 63.6875 42.269531 62.550781 47.886719 57.699219 53.011719 C 54.058594 56.496094 49.222656 58.136719 44.269531 58.082031 C 39.476562 57.960938 35.351562 56.296875 31.796875 53.066406 C 31.660156 52.949219 31.527344 52.828125 31.386719 52.707031 C 28.109375 49.679688 26.324219 45.167969 25.78125 40.820312 C 25.761719 40.335938 25.757812 39.851562 25.757812 39.367188 C 25.757812 39.089844 25.757812 38.808594 25.757812 38.519531 C 25.757812 38.21875 25.757812 37.917969 25.761719 37.617188 C 25.761719 37.308594 25.761719 36.996094 25.761719 36.6875 C 25.761719 35.871094 25.765625 35.058594 25.765625 34.242188 C 25.769531 33.265625 25.769531 32.285156 25.769531 31.304688 C 25.773438 29.824219 25.777344 28.339844 25.78125 26.855469 C 28.476562 26.855469 31.167969 26.855469 33.945312 26.855469 C 33.945312 25.792969 33.945312 24.730469 33.945312 23.632812 C 31.25 23.632812 28.558594 23.632812 25.78125 23.632812 C 25.738281 20.089844 25.738281 20.089844 25.730469 18.566406 C 25.722656 17.53125 25.714844 16.496094 25.699219 15.460938 C 25.6875 14.625 25.683594 13.789062 25.679688 12.953125 C 25.675781 12.636719 25.671875 12.320312 25.667969 12 C 25.617188 9.234375 26.128906 6.976562 28.089844 4.921875 C 29.320312 3.882812 30.816406 3.199219 32.429688 3.191406 Z M 32.429688 3.191406 "/>
<path style=" stroke:none;fill-rule:nonzero;fill:rgb(0%,80.000001%,54.11765%);fill-opacity:1;" d="M 22.128906 70.898438 C 22.128906 74.019531 22.128906 77.136719 22.128906 80.351562 C 21.136719 80.636719 20.144531 80.917969 19.121094 81.210938 C 15.519531 83.046875 13.421875 85.390625 12.019531 89.171875 C 11.679688 90.230469 11.574219 91.191406 11.558594 92.300781 C 11.554688 92.441406 11.554688 92.578125 11.550781 92.722656 C 11.542969 93.175781 11.539062 93.632812 11.535156 94.085938 C 11.527344 94.402344 11.523438 94.71875 11.519531 95.035156 C 11.507812 95.863281 11.496094 96.695312 11.488281 97.527344 C 11.472656 98.523438 11.460938 99.519531 11.445312 100.519531 C 11.425781 102.03125 11.40625 103.546875 11.386719 105.058594 C 13.796875 105.058594 16.207031 105.058594 18.691406 105.058594 C 18.691406 103.996094 18.691406 102.929688 18.691406 101.835938 C 17.34375 101.835938 15.996094 101.835938 14.609375 101.835938 C 14.59375 100.378906 14.582031 98.925781 14.574219 97.46875 C 14.570312 96.972656 14.566406 96.480469 14.5625 95.984375 C 14.554688 95.269531 14.550781 94.554688 14.546875 93.84375 C 14.542969 93.515625 14.542969 93.515625 14.535156 93.179688 C 14.535156 90.417969 15.328125 88.140625 17.210938 86.089844 C 19.539062 83.894531 21.875 83.445312 24.960938 83.5 C 27.117188 83.601562 28.988281 84.648438 30.507812 86.152344 C 32.3125 88.28125 33.007812 90.332031 32.953125 93.101562 C 32.953125 93.347656 32.953125 93.59375 32.953125 93.84375 C 32.945312 94.621094 32.9375 95.394531 32.925781 96.167969 C 32.921875 96.699219 32.917969 97.226562 32.914062 97.753906 C 32.902344 99.042969 32.890625 100.332031 32.871094 101.621094 C 31.59375 101.621094 30.320312 101.621094 29.003906 101.621094 C 29.003906 102.683594 29.003906 103.75 29.003906 104.84375 C 31.34375 104.84375 33.683594 104.84375 36.09375 104.84375 C 36.09375 100.378906 36.09375 95.910156 36.09375 91.308594 C 36.164062 91.308594 36.234375 91.308594 36.308594 91.308594 C 36.308594 95.351562 36.308594 99.390625 36.308594 103.554688 C 52.6875 103.554688 69.0625 103.554688 85.9375 103.554688 C 85.9375 101.214844 85.9375 98.875 85.9375 96.464844 C 87.640625 96.359375 87.640625 96.359375 89.375 96.25 C 89.375 100.789062 89.375 105.324219 89.375 110 C 59.882812 110 30.386719 110 0 110 C 0 105.460938 0 100.925781 0 96.25 C 0.496094 96.25 0.992188 96.25 1.503906 96.25 C 1.5 96.035156 1.5 95.820312 1.496094 95.597656 C 1.496094 95.324219 1.492188 95.046875 1.492188 94.757812 C 1.488281 94.484375 1.484375 94.207031 1.484375 93.921875 C 1.503906 93.242188 1.503906 93.242188 1.71875 93.027344 C 2.21875 93.019531 2.722656 93.019531 3.222656 93.027344 C 3.21875 92.761719 3.214844 92.496094 3.210938 92.21875 C 3.199219 91.222656 3.191406 90.222656 3.1875 89.222656 C 3.183594 88.792969 3.179688 88.359375 3.175781 87.929688 C 3.117188 83.367188 3.800781 79.476562 7.089844 76.054688 C 9.960938 73.332031 12.988281 72.519531 16.757812 71.757812 C 17.164062 71.671875 17.574219 71.585938 17.980469 71.5 C 18.363281 71.421875 18.75 71.339844 19.132812 71.261719 C 19.3125 71.222656 19.488281 71.1875 19.671875 71.148438 C 19.839844 71.117188 20.003906 71.082031 20.175781 71.046875 C 20.320312 71.019531 20.464844 70.992188 20.613281 70.960938 C 21.054688 70.898438 21.054688 70.898438 22.128906 70.898438 Z M 22.128906 70.898438 "/>
<path style=" stroke:none;fill-rule:nonzero;fill:rgb(0.392157%,0.392157%,0.392157%);fill-opacity:1;" d="M 86.796875 15.683594 C 87.785156 16.003906 88.175781 16.824219 88.691406 17.660156 C 88.898438 17.996094 89.109375 18.328125 89.320312 18.660156 C 89.488281 18.929688 89.488281 18.929688 89.660156 19.203125 C 90.292969 20.195312 90.941406 21.171875 91.589844 22.152344 C 91.863281 22.566406 92.136719 22.980469 92.410156 23.394531 C 92.828125 24.03125 93.25 24.664062 93.667969 25.300781 C 94.082031 25.925781 94.496094 26.550781 94.90625 27.175781 C 95.09375 27.460938 95.09375 27.460938 95.289062 27.75 C 95.839844 28.585938 96.390625 29.425781 96.894531 30.292969 C 97.570312 30.089844 98.132812 29.898438 98.71875 29.5 C 99.464844 29.109375 99.730469 29.214844 100.546875 29.433594 C 101.328125 29.808594 102.070312 30.246094 102.816406 30.683594 C 103.007812 30.792969 103.199219 30.902344 103.398438 31.019531 C 103.824219 31.261719 104.25 31.507812 104.671875 31.753906 C 105.75 32.378906 106.832031 32.996094 107.910156 33.613281 C 108.21875 33.789062 108.21875 33.789062 108.53125 33.964844 C 109.019531 34.246094 109.511719 34.523438 110 34.804688 C 110.085938 36.363281 110.148438 37.921875 110.1875 39.484375 C 110.207031 40.207031 110.234375 40.933594 110.277344 41.65625 C 110.523438 46.316406 110.523438 46.316406 109.671875 47.507812 C 108.832031 48.253906 107.867188 48.65625 106.816406 49.027344 C 106.152344 49.269531 105.558594 49.609375 104.945312 49.960938 C 104.738281 50.074219 104.527344 50.1875 104.3125 50.304688 C 102.203125 51.46875 100.675781 52.535156 99.320312 54.527344 C 98.539062 55.621094 97.554688 56.375 96.464844 57.148438 C 96.296875 57.269531 96.125 57.390625 95.953125 57.515625 C 92.113281 60.027344 87.34375 60.394531 82.949219 59.507812 C 79.902344 58.824219 77.394531 57.160156 75.195312 55 C 75.058594 54.867188 74.925781 54.734375 74.785156 54.601562 C 71.933594 51.578125 70.816406 47.691406 70.851562 43.609375 C 71.050781 39.917969 72.628906 37 74.644531 34.011719 C 74.824219 33.742188 75.007812 33.46875 75.1875 33.195312 C 75.6875 32.441406 76.195312 31.691406 76.699219 30.9375 C 76.957031 30.550781 77.214844 30.164062 77.472656 29.777344 C 77.574219 29.625 77.675781 29.476562 77.777344 29.320312 C 77.847656 29.214844 77.917969 29.109375 77.988281 29.003906 C 79.222656 29.40625 79.222656 29.40625 79.707031 29.648438 C 79.785156 29.429688 79.785156 29.429688 79.867188 29.207031 C 80.1875 28.453125 80.582031 27.777344 80.996094 27.070312 C 80.640625 26.929688 80.289062 26.785156 79.921875 26.640625 C 80.058594 25.914062 80.335938 25.414062 80.742188 24.796875 C 80.867188 24.605469 80.996094 24.410156 81.128906 24.210938 C 81.335938 23.898438 81.335938 23.898438 81.546875 23.578125 C 81.6875 23.363281 81.828125 23.148438 81.976562 22.929688 C 82.433594 22.230469 82.898438 21.535156 83.359375 20.839844 C 83.523438 20.59375 83.683594 20.347656 83.847656 20.105469 C 84.828125 18.628906 85.8125 17.15625 86.796875 15.683594 Z M 86.796875 15.683594 "/>
<path style=" stroke:none;fill-rule:nonzero;fill:rgb(43.921569%,89.019608%,74.509805%);fill-opacity:1;" d="M 32.429688 3.191406 C 32.648438 3.1875 32.871094 3.1875 33.097656 3.183594 C 33.457031 3.183594 33.457031 3.183594 33.824219 3.179688 C 34.078125 3.179688 34.332031 3.175781 34.59375 3.175781 C 35.4375 3.171875 36.277344 3.167969 37.121094 3.164062 C 37.410156 3.164062 37.703125 3.160156 37.992188 3.160156 C 39.203125 3.15625 40.414062 3.152344 41.621094 3.148438 C 43.351562 3.144531 45.082031 3.140625 46.8125 3.125 C 48.03125 3.117188 49.25 3.113281 50.46875 3.113281 C 51.195312 3.113281 51.917969 3.109375 52.644531 3.101562 C 53.460938 3.09375 54.273438 3.097656 55.085938 3.097656 C 55.320312 3.09375 55.558594 3.089844 55.800781 3.085938 C 58.015625 3.105469 60.085938 3.792969 61.714844 5.335938 C 62.996094 6.917969 63.621094 8.648438 63.617188 10.65625 C 63.617188 10.800781 63.617188 10.941406 63.617188 11.089844 C 63.617188 11.550781 63.617188 12.011719 63.613281 12.472656 C 63.613281 12.753906 63.613281 13.035156 63.613281 13.324219 C 63.613281 14.378906 63.609375 15.433594 63.605469 16.488281 C 63.601562 18.847656 63.597656 21.203125 63.59375 23.632812 C 54.875 23.632812 46.152344 23.632812 37.167969 23.632812 C 37.167969 24.128906 37.167969 24.625 37.167969 25.136719 C 36.105469 25.136719 35.042969 25.136719 33.945312 25.136719 C 33.945312 24.640625 33.945312 24.144531 33.945312 23.632812 C 31.25 23.632812 28.558594 23.632812 25.78125 23.632812 C 25.738281 20.089844 25.738281 20.089844 25.730469 18.566406 C 25.722656 17.53125 25.714844 16.496094 25.699219 15.460938 C 25.6875 14.625 25.683594 13.789062 25.679688 12.953125 C 25.675781 12.636719 25.671875 12.320312 25.667969 12 C 25.617188 9.234375 26.128906 6.976562 28.089844 4.921875 C 29.320312 3.882812 30.816406 3.199219 32.429688 3.191406 Z M 32.429688 3.191406 "/>
<path style=" stroke:none;fill-rule:nonzero;fill:rgb(99.215686%,60.784316%,52.549022%);fill-opacity:1;" d="M 86.796875 21.699219 C 87.527344 21.941406 87.589844 22.046875 87.980469 22.671875 C 88.136719 22.917969 88.136719 22.917969 88.296875 23.167969 C 88.40625 23.347656 88.519531 23.527344 88.636719 23.714844 C 88.882812 24.101562 89.128906 24.488281 89.378906 24.875 C 89.511719 25.089844 89.648438 25.300781 89.789062 25.519531 C 90.625 26.816406 91.484375 28.097656 92.34375 29.378906 C 92.519531 29.640625 92.691406 29.90625 92.867188 30.167969 C 93.277344 30.78125 93.691406 31.398438 94.101562 32.011719 C 93.789062 32.8125 93.789062 32.8125 93.273438 33.066406 C 93.117188 33.113281 92.957031 33.160156 92.796875 33.207031 C 91.640625 33.625 90.609375 34.0625 89.804688 35.019531 C 89.113281 36.949219 89.375 39.15625 89.457031 41.167969 C 89.464844 41.738281 89.472656 42.308594 89.476562 42.878906 C 89.496094 44.269531 89.535156 45.660156 89.589844 47.050781 C 89.757812 47.117188 89.925781 47.183594 90.101562 47.253906 C 90.597656 47.453125 91.050781 47.671875 91.515625 47.933594 C 91.671875 48.019531 91.832031 48.105469 91.992188 48.195312 C 92.15625 48.289062 92.320312 48.378906 92.492188 48.472656 C 92.660156 48.570312 92.828125 48.664062 93.003906 48.761719 C 94.46875 49.582031 95.902344 50.449219 97.324219 51.347656 C 96.238281 53.785156 93.824219 54.847656 91.523438 55.859375 C 91.34375 55.941406 91.164062 56.023438 90.976562 56.109375 C 88.113281 57.089844 84.324219 56.734375 81.597656 55.566406 C 78.300781 53.941406 76.0625 51.429688 74.707031 48.015625 C 73.820312 44.984375 74.121094 41.601562 75.5625 38.824219 C 76.730469 36.761719 78.109375 34.816406 79.441406 32.859375 C 79.585938 32.644531 79.734375 32.429688 79.882812 32.207031 C 80.015625 32.015625 80.144531 31.824219 80.28125 31.625 C 80.601562 31.183594 80.601562 31.183594 80.566406 30.722656 C 80.21875 30.355469 79.859375 29.996094 79.492188 29.648438 C 79.988281 28.867188 80.484375 28.089844 80.996094 27.285156 C 82.285156 27.714844 82.285156 27.714844 82.714844 27.929688 C 84.0625 25.875 85.410156 23.816406 86.796875 21.699219 Z M 86.796875 21.699219 "/>
<path style=" stroke:none;fill-rule:nonzero;fill:rgb(43.921569%,88.627452%,74.117649%);fill-opacity:1;" d="M 22.128906 70.898438 C 22.128906 74.019531 22.128906 77.136719 22.128906 80.351562 C 21.136719 80.636719 20.144531 80.917969 19.121094 81.210938 C 15.519531 83.046875 13.421875 85.390625 12.019531 89.171875 C 11.695312 90.183594 11.574219 91.105469 11.558594 92.164062 C 11.554688 92.417969 11.550781 92.671875 11.542969 92.933594 C 11.539062 93.339844 11.539062 93.339844 11.535156 93.757812 C 11.527344 94.035156 11.523438 94.316406 11.519531 94.605469 C 11.507812 95.347656 11.496094 96.085938 11.488281 96.828125 C 11.476562 97.585938 11.464844 98.34375 11.453125 99.101562 C 11.429688 100.585938 11.40625 102.070312 11.386719 103.554688 C 8.761719 103.554688 6.140625 103.554688 3.4375 103.554688 C 3.4375 101.214844 3.4375 98.875 3.4375 96.464844 C 2.871094 96.464844 2.304688 96.464844 1.71875 96.464844 C 1.503906 96.25 1.503906 96.25 1.476562 95.578125 C 1.476562 95.304688 1.476562 95.027344 1.476562 94.746094 C 1.476562 94.472656 1.476562 94.195312 1.476562 93.914062 C 1.503906 93.242188 1.503906 93.242188 1.71875 93.027344 C 2.21875 93.019531 2.722656 93.019531 3.222656 93.027344 C 3.21875 92.761719 3.214844 92.496094 3.210938 92.21875 C 3.199219 91.222656 3.191406 90.222656 3.1875 89.222656 C 3.183594 88.792969 3.179688 88.359375 3.175781 87.929688 C 3.117188 83.367188 3.800781 79.476562 7.089844 76.054688 C 9.960938 73.332031 12.988281 72.519531 16.757812 71.757812 C 17.164062 71.671875 17.574219 71.585938 17.980469 71.5 C 18.363281 71.421875 18.75 71.339844 19.132812 71.261719 C 19.3125 71.222656 19.488281 71.1875 19.671875 71.148438 C 19.839844 71.117188 20.003906 71.082031 20.175781 71.046875 C 20.320312 71.019531 20.464844 70.992188 20.613281 70.960938 C 21.054688 70.898438 21.054688 70.898438 22.128906 70.898438 Z M 22.128906 70.898438 "/>
<path style=" stroke:none;fill-rule:nonzero;fill:rgb(43.921569%,88.627452%,74.117649%);fill-opacity:1;" d="M 29.609375 85.332031 C 31.304688 86.753906 32.675781 88.84375 32.945312 91.074219 C 32.96875 91.75 32.96875 92.425781 32.953125 93.101562 C 32.953125 93.347656 32.953125 93.59375 32.953125 93.84375 C 32.945312 94.621094 32.9375 95.394531 32.925781 96.167969 C 32.921875 96.699219 32.917969 97.226562 32.914062 97.753906 C 32.902344 99.042969 32.890625 100.332031 32.871094 101.621094 C 31.59375 101.621094 30.320312 101.621094 29.003906 101.621094 C 29.003906 102.257812 29.003906 102.898438 29.003906 103.554688 C 25.601562 103.554688 22.199219 103.554688 18.691406 103.554688 C 18.691406 102.988281 18.691406 102.421875 18.691406 101.835938 C 17.34375 101.835938 15.996094 101.835938 14.609375 101.835938 C 14.59375 100.378906 14.582031 98.925781 14.574219 97.46875 C 14.570312 96.972656 14.566406 96.480469 14.5625 95.984375 C 14.554688 95.269531 14.550781 94.554688 14.546875 93.84375 C 14.542969 93.625 14.539062 93.40625 14.535156 93.179688 C 14.535156 90.417969 15.328125 88.140625 17.210938 86.089844 C 20.679688 82.816406 25.75 82.605469 29.609375 85.332031 Z M 29.609375 85.332031 "/>
<path style=" stroke:none;fill-rule:nonzero;fill:rgb(98.823529%,89.019608%,75.294119%);fill-opacity:1;" d="M 35.449219 59.296875 C 35.628906 59.359375 35.628906 59.359375 35.816406 59.421875 C 36.871094 59.777344 37.929688 60.109375 39.007812 60.398438 C 39.269531 60.46875 39.53125 60.539062 39.800781 60.613281 C 43.980469 61.582031 48.628906 61.3125 52.605469 59.691406 C 53.066406 59.511719 53.066406 59.511719 53.710938 59.511719 C 54.191406 64.46875 53.78125 67.480469 50.71875 71.578125 C 50.078125 72.453125 49.511719 73.371094 48.945312 74.296875 C 48.742188 74.617188 48.535156 74.9375 48.332031 75.257812 C 47.855469 76.007812 47.390625 76.765625 46.929688 77.523438 C 46.804688 77.734375 46.675781 77.941406 46.542969 78.15625 C 46.296875 78.566406 46.046875 78.976562 45.800781 79.386719 C 45.636719 79.660156 45.636719 79.660156 45.464844 79.9375 C 45.367188 80.101562 45.269531 80.265625 45.167969 80.433594 C 45.078125 80.546875 44.992188 80.664062 44.902344 80.78125 C 44.761719 80.78125 44.617188 80.78125 44.472656 80.78125 C 44.179688 80.390625 44.179688 80.390625 43.839844 79.835938 C 43.710938 79.628906 43.585938 79.421875 43.453125 79.210938 C 43.246094 78.871094 43.246094 78.871094 43.035156 78.523438 C 42.742188 78.050781 42.449219 77.574219 42.15625 77.097656 C 42.003906 76.851562 41.851562 76.605469 41.699219 76.355469 C 41.140625 75.445312 40.570312 74.535156 40 73.625 C 39.730469 73.191406 39.464844 72.757812 39.199219 72.324219 C 38.59375 71.335938 37.980469 70.386719 37.25 69.488281 C 34.824219 66.375 35.1875 63.058594 35.449219 59.296875 Z M 35.449219 59.296875 "/>
<path style=" stroke:none;fill-rule:nonzero;fill:rgb(0.392157%,79.607844%,53.725493%);fill-opacity:1;" d="M 25.78125 9.023438 C 25.851562 9.023438 25.921875 9.023438 25.996094 9.023438 C 25.996094 12.285156 25.996094 15.546875 25.996094 18.90625 C 31.597656 18.90625 37.199219 18.90625 42.96875 18.90625 C 42.96875 19.261719 42.96875 19.617188 42.96875 19.980469 C 44.101562 19.980469 45.238281 19.980469 46.40625 19.980469 C 46.40625 19.625 46.40625 19.273438 46.40625 18.90625 C 52.007812 18.90625 57.609375 18.90625 63.378906 18.90625 C 63.378906 15.714844 63.378906 12.523438 63.378906 9.238281 C 63.449219 9.238281 63.519531 9.238281 63.59375 9.238281 C 63.59375 13.988281 63.59375 18.738281 63.59375 23.632812 C 54.875 23.632812 46.152344 23.632812 37.167969 23.632812 C 37.167969 24.128906 37.167969 24.625 37.167969 25.136719 C 36.105469 25.136719 35.039062 25.136719 33.945312 25.136719 C 33.945312 24.640625 33.945312 24.144531 33.945312 23.632812 C 31.25 23.632812 28.558594 23.632812 25.78125 23.632812 C 25.78125 18.8125 25.78125 13.992188 25.78125 9.023438 Z M 25.78125 9.023438 "/>
<path style=" stroke:none;fill-rule:nonzero;fill:rgb(98.431373%,81.568629%,63.529414%);fill-opacity:1;" d="M 25.996094 41.464844 C 26.589844 41.992188 26.910156 42.566406 27.285156 43.265625 C 29.78125 47.582031 33.867188 50.816406 38.660156 52.25 C 38.875 52.304688 39.09375 52.363281 39.316406 52.421875 C 39.554688 52.484375 39.796875 52.550781 40.042969 52.617188 C 45.453125 53.882812 51.011719 52.804688 55.742188 49.917969 C 59.0625 47.785156 61.296875 44.898438 63.164062 41.464844 C 63.613281 42.363281 63.113281 43.53125 62.820312 44.441406 C 61.070312 49.597656 58.054688 53.574219 53.171875 56.101562 C 48.863281 58.222656 43.707031 58.878906 39.074219 57.351562 C 36.316406 56.410156 33.957031 55.03125 31.796875 53.066406 C 31.660156 52.949219 31.527344 52.828125 31.386719 52.707031 C 28.484375 50.027344 26.757812 46.140625 25.996094 42.324219 C 25.996094 42.039062 25.996094 41.757812 25.996094 41.464844 Z M 25.996094 41.464844 "/>
<path style=" stroke:none;fill-rule:nonzero;fill:rgb(79.607844%,84.313726%,85.882354%);fill-opacity:1;" d="M 68.796875 87.398438 C 70.003906 88.207031 71.082031 89.492188 71.542969 90.878906 C 71.710938 92.863281 71.710938 94.601562 70.46875 96.25 C 69.398438 97.40625 68.25 98.300781 66.652344 98.5 C 66.363281 98.507812 66.070312 98.507812 65.78125 98.507812 C 65.628906 98.503906 65.480469 98.503906 65.324219 98.5 C 63.738281 98.445312 62.789062 97.992188 61.664062 96.914062 C 60.453125 95.609375 59.820312 94.4375 59.847656 92.625 C 59.847656 92.472656 59.851562 92.320312 59.851562 92.164062 C 59.90625 90.484375 60.390625 89.566406 61.5 88.355469 C 63.511719 86.507812 66.3125 86.070312 68.796875 87.398438 Z M 68.796875 87.398438 "/>
<path style=" stroke:none;fill-rule:nonzero;fill:rgb(99.215686%,41.176471%,27.843139%);fill-opacity:1;" d="M 74.335938 44.472656 C 74.761719 45.003906 75.183594 45.535156 75.59375 46.078125 C 76.394531 47.121094 77.164062 47.957031 78.246094 48.707031 C 78.792969 49.101562 79.238281 49.578125 79.707031 50.058594 C 80 50.328125 80.296875 50.597656 80.59375 50.863281 C 80.808594 51.054688 80.808594 51.054688 81.023438 51.25 C 81.433594 51.605469 81.433594 51.605469 82.070312 51.777344 C 82.210938 51.566406 82.355469 51.351562 82.5 51.132812 C 83.914062 51.328125 83.914062 51.328125 84.480469 51.457031 C 87.539062 51.996094 91.003906 51.570312 93.691406 49.972656 C 94.117188 49.75 94.117188 49.75 94.53125 49.628906 C 95.167969 49.867188 95.515625 50.042969 96.035156 50.433594 C 96.160156 50.519531 96.285156 50.605469 96.414062 50.695312 C 96.722656 50.90625 97.023438 51.125 97.324219 51.347656 C 96.238281 53.785156 93.824219 54.847656 91.523438 55.859375 C 91.34375 55.941406 91.164062 56.023438 90.976562 56.109375 C 88.113281 57.089844 84.324219 56.734375 81.597656 55.566406 C 78.902344 54.234375 76.808594 52.304688 75.410156 49.628906 C 75.320312 49.457031 75.230469 49.285156 75.136719 49.109375 C 74.449219 47.613281 74.382812 46.101562 74.335938 44.472656 Z M 74.335938 44.472656 "/>
<path style=" stroke:none;fill-rule:nonzero;fill:rgb(99.215686%,99.607843%,99.607843%);fill-opacity:1;" d="M 42.96875 6.875 C 44.03125 6.875 45.09375 6.875 46.191406 6.875 C 46.191406 8.503906 46.191406 10.136719 46.191406 11.816406 C 47.820312 11.816406 49.453125 11.816406 51.132812 11.816406 C 51.132812 12.878906 51.132812 13.945312 51.132812 15.039062 C 49.503906 15.039062 47.871094 15.039062 46.191406 15.039062 C 46.191406 16.597656 46.191406 18.160156 46.191406 19.765625 C 45.199219 19.765625 44.207031 19.765625 43.183594 19.765625 C 43.183594 18.207031 43.183594 16.644531 43.183594 15.039062 C 41.554688 15.039062 39.921875 15.039062 38.242188 15.039062 C 38.242188 13.976562 38.242188 12.914062 38.242188 11.816406 C 39.800781 11.816406 41.363281 11.816406 42.96875 11.816406 C 42.96875 10.1875 42.96875 8.554688 42.96875 6.875 Z M 42.96875 6.875 "/>
<path style=" stroke:none;fill-rule:nonzero;fill:rgb(0%,0%,0%);fill-opacity:1;" d="M 89.375 96.25 C 89.375 100.789062 89.375 105.324219 89.375 110 C 88.3125 110 87.25 110 86.152344 110 C 86.152344 105.535156 86.152344 101.066406 86.152344 96.464844 C 87.65625 96.25 87.65625 96.25 89.375 96.25 Z M 89.375 96.25 "/>
<path style=" stroke:none;fill-rule:nonzero;fill:rgb(0%,0%,0%);fill-opacity:1;" d="M 0 96.25 C 1.71875 96.25 1.71875 96.25 3.222656 96.464844 C 3.222656 100.929688 3.222656 105.398438 3.222656 110 C 2.160156 110 1.09375 110 0 110 C 0 105.460938 0 100.925781 0 96.25 Z M 0 96.25 "/>
<path style=" stroke:none;fill-rule:nonzero;fill:rgb(100%,98.823529%,98.823529%);fill-opacity:1;" d="M 78.847656 39.746094 C 80.910156 40.820312 80.910156 40.820312 81.640625 41.679688 C 81.535156 41.839844 81.429688 42 81.320312 42.164062 C 80.722656 43.367188 80.796875 44.835938 81.152344 46.105469 C 81.570312 47.125 82.09375 47.824219 82.929688 48.554688 C 83.144531 48.769531 83.359375 48.984375 83.574219 49.199219 C 83.222656 50.226562 82.65625 51.089844 82.070312 51.992188 C 79.824219 50.914062 78.644531 49.117188 77.773438 46.835938 C 77.257812 45.285156 77.222656 43.03125 77.847656 41.496094 C 78.152344 40.890625 78.472656 40.3125 78.847656 39.746094 Z M 78.847656 39.746094 "/>
<path style=" stroke:none;fill-rule:nonzero;fill:rgb(64.313728%,85.882354%,94.901961%);fill-opacity:1;" d="M 92.8125 38.886719 C 94.160156 39.617188 95.5 40.351562 96.828125 41.117188 C 97.273438 41.371094 97.722656 41.628906 98.183594 41.894531 C 98.183594 43.949219 98.183594 46.007812 98.183594 48.125 C 97.828125 47.984375 97.476562 47.839844 97.109375 47.695312 C 96.9375 47.632812 96.769531 47.570312 96.59375 47.507812 C 95.167969 46.96875 93.742188 46.363281 92.8125 45.117188 C 92.269531 43.117188 92.550781 40.917969 92.8125 38.886719 Z M 92.8125 38.886719 "/>
<path style=" stroke:none;fill-rule:nonzero;fill:rgb(64.313728%,86.274511%,95.294118%);fill-opacity:1;" d="M 100.546875 33.300781 C 101.105469 33.5625 101.105469 33.5625 101.660156 33.886719 C 101.957031 34.058594 101.957031 34.058594 102.265625 34.234375 C 102.46875 34.355469 102.671875 34.476562 102.882812 34.601562 C 103.199219 34.785156 103.199219 34.785156 103.519531 34.972656 C 104.03125 35.273438 104.546875 35.574219 105.058594 35.878906 C 104.25 36.757812 103.207031 37.28125 102.183594 37.878906 C 101.980469 38.003906 101.777344 38.125 101.570312 38.253906 C 101.273438 38.425781 101.273438 38.425781 100.972656 38.601562 C 100.703125 38.761719 100.703125 38.761719 100.429688 38.925781 C 99.902344 39.101562 99.902344 39.101562 99.355469 38.949219 C 99.09375 38.8125 99.09375 38.8125 98.828125 38.671875 C 98.671875 38.59375 98.519531 38.515625 98.359375 38.4375 C 97.855469 38.164062 97.355469 37.886719 96.855469 37.609375 C 96.679688 37.515625 96.503906 37.421875 96.320312 37.324219 C 96.070312 37.183594 96.070312 37.183594 95.8125 37.042969 C 95.65625 36.957031 95.503906 36.875 95.347656 36.785156 C 94.960938 36.523438 94.960938 36.523438 94.53125 35.878906 C 94.636719 35.816406 94.742188 35.753906 94.847656 35.691406 C 95.328125 35.410156 95.808594 35.128906 96.289062 34.84375 C 96.457031 34.746094 96.621094 34.652344 96.789062 34.550781 C 96.953125 34.457031 97.113281 34.359375 97.28125 34.261719 C 97.4375 34.171875 97.59375 34.082031 97.757812 33.984375 C 98.101562 33.78125 98.433594 33.554688 98.757812 33.324219 C 99.441406 32.996094 99.816406 33.128906 100.546875 33.300781 Z M 100.546875 33.300781 "/>
<path style=" stroke:none;fill-rule:nonzero;fill:rgb(64.313728%,86.274511%,95.294118%);fill-opacity:1;" d="M 106.777344 38.886719 C 106.777344 40.941406 106.777344 43 106.777344 45.117188 C 105.972656 45.578125 105.164062 46.039062 104.332031 46.515625 C 104.078125 46.660156 103.824219 46.804688 103.5625 46.957031 C 103.363281 47.070312 103.164062 47.183594 102.957031 47.300781 C 102.753906 47.417969 102.550781 47.535156 102.339844 47.652344 C 101.835938 47.910156 101.835938 47.910156 101.40625 47.910156 C 100.964844 42.691406 100.964844 42.691406 101.644531 41.460938 C 102.355469 40.757812 103.273438 40.488281 104.199219 40.175781 C 104.613281 39.933594 105.019531 39.683594 105.421875 39.421875 C 106.292969 38.886719 106.292969 38.886719 106.777344 38.886719 Z M 106.777344 38.886719 "/>
<path style=" stroke:none;fill-rule:nonzero;fill:rgb(97.647059%,98.039216%,98.431373%);fill-opacity:1;" d="M 64.023438 90.878906 C 65.15625 90.878906 66.292969 90.878906 67.460938 90.878906 C 67.460938 92.011719 67.460938 93.148438 67.460938 94.316406 C 66.933594 94.320312 66.40625 94.324219 65.863281 94.328125 C 65.695312 94.332031 65.53125 94.332031 65.359375 94.335938 C 64.984375 94.335938 64.613281 94.328125 64.238281 94.316406 C 64.023438 94.101562 64.023438 94.101562 64.003906 93.375 C 64.003906 93.074219 64.007812 92.777344 64.011719 92.476562 C 64.015625 91.949219 64.019531 91.421875 64.023438 90.878906 Z M 64.023438 90.878906 "/>
</g>
</svg>
